# xmcd CD database file
#
# Track frame offsets:
#	150
#	14693
#	31733
#	46950
#	56849
#	72679
#	88786
#	101984
#	121681
#	137895
#	154724
#	169680
#	183415
#	200161
#	213240
#	227120
#	240289
#	255086
#	270510
#	287039
#	306255
#	323145
#
# Disc length: 4545 seconds
#
# Revision: 0
# Processed by: cddbd v1.5.2PL0 Copyright (c) Steve Scherf et al.
# Submitted via: CDex 2.06
#
DISCID=3c11bf16
DTITLE=Various Artist - Men Of Country 2016 - CD2
DYEAR=2016
DGENRE=Country
TTITLE0=Drew McAlister - Black Sky
TTITLE1=Joe Diffie - Prop Me Up Beside The Jukebox (If I Die)
TTITLE2=Darryl Worley - Tennessee River Run
TTITLE3=Tracy Byrd - Drinkin' Bone
TTITLE4=Jon Pardi - Up All Night
TTITLE5=Jerrod Niemann - What Do You Want
TTITLE6=Charlie Rich - Behind Closed Doors
TTITLE7=Clint Black - Like The Rain
TTITLE8=Adam Brand And The Outlaws - It's Five O'clock 
TTITLE9=Lonestar - My Front Porch Looking In
TTITLE10=Tracy Lawrence - Is That A Tear
TTITLE11=Kane Brown - Used To Love You Sober
TTITLE12=LANco - American Love Story
TTITLE13=John Anderson - Straight Tequila Night
TTITLE14=Mo Pitney - Boy And A Girl Thing
TTITLE15=Waylon Jennings - Are You Sure Hank Done It This Way
TTITLE16=Montgomery Gentry - Lucky Man
TTITLE17=Dylan Scott - Crazy Over Me
TTITLE18=Collin Raye - I Can Still Feel You
TTITLE19=Adam Harvey - The Nips Are Getting Bigger
TTITLE20=Vince Gill - Don't Let Our Love Start Slippin' 
TTITLE21=Mark Chesnutt - I Don't Want To Miss A Thing
EXTD=YEAR: 2016
EXTT0=
EXTT1=
EXTT2=
EXTT3=
EXTT4=
EXTT5=
EXTT6=
EXTT7=
EXTT8=
EXTT9=
EXTT10=
EXTT11=
EXTT12=
EXTT13=
EXTT14=
EXTT15=
EXTT16=
EXTT17=
EXTT18=
EXTT19=
EXTT20=
EXTT21=
PLAYORDER=
